<svg width="157" height="121" viewBox="0 0 157 121" fill="none" xmlns="http://www.w3.org/2000/svg">
<g filter="url(#filter0_d_84_99)">
<g clip-path="url(#clip0_84_99)">
<path fill-rule="evenodd" clip-rule="evenodd" d="M2 2H208.625V10.3493H2V2ZM2 18.6983H208.625V27.0476H2V18.6983ZM2 35.3753H208.625V43.7456H2V35.3753ZM2 52.0736H208.625V60.4229H2V52.0736ZM2 68.7719H208.625V77.1212H2V68.7719ZM2 85.449H208.625V93.7982H2V85.449ZM2 102.147H208.625V110.497H2V102.147Z" fill="#BD3D44"/>
<path fill-rule="evenodd" clip-rule="evenodd" d="M2 10.3492H208.625V18.6983H2V10.3492ZM2 27.0473H208.625V35.3753H2V27.0473ZM2 43.7246H208.625V52.0736H2V43.7246ZM2 60.4229H208.625V68.7719H2V60.4229ZM2 77.1212H208.625V85.4702H2V77.1212ZM2 93.7982H208.625V102.147H2V93.7982Z" fill="white"/>
<path fill-rule="evenodd" clip-rule="evenodd" d="M2 2H84.6457V60.4229H2V2Z" fill="#192F5D"/>
<path fill-rule="evenodd" clip-rule="evenodd" d="M8.88172 4.50061L9.64637 6.81H12.0679L10.1135 8.22995L10.8571 10.5608L8.88172 9.11985L6.92762 10.5396L7.67097 8.22995L5.6958 6.81H8.15967L8.88172 4.50061ZM22.6667 4.50061L23.41 6.81H25.8526L23.8772 8.22995L24.6208 10.5608L22.6667 9.11985L20.6913 10.5396L21.4346 8.22995L19.4805 6.81H21.902L22.6667 4.50061ZM36.4304 4.50061L37.195 6.81023H39.5952L37.6411 8.23018L38.3842 10.561L36.4091 9.12008L34.455 10.5398L35.1983 8.23018L33.2229 6.81023H35.6657L36.4304 4.50061ZM50.2153 4.50061L50.9585 6.81023H53.4013L51.4259 8.23018L52.1905 10.561L50.2151 9.12008L48.2399 10.5398L49.0046 8.23018L47.0292 6.81023H49.4507L50.2153 4.50061ZM63.979 4.50061L64.7437 6.81023H67.1649L65.2108 8.23018L65.9542 10.561L63.9788 9.12008L62.0247 10.5398L62.7683 8.23018L60.8142 6.81023H63.2354L63.979 4.50061ZM77.7637 4.50061L78.5071 6.81023H80.9499L78.9745 8.23018L79.7392 10.561L77.7637 9.12008L75.7884 10.5398L76.553 8.23018L74.5778 6.81023H77.0204L77.7637 4.50061ZM15.7849 10.3488L16.5282 12.6589H18.9708L16.9954 14.0784L17.7177 16.3884L15.8059 14.9685L13.8308 16.3882L14.5315 14.0786L12.62 12.6586H15.0415L15.7849 10.3488ZM29.5485 10.3488L30.3132 12.6589H32.7344L30.759 14.0784L31.5239 16.3884L29.5483 14.9685L27.5731 16.3882L28.3378 14.0786L26.3624 12.6586H28.8049L29.5485 10.3488ZM43.3335 10.3488L44.0766 12.6589H46.5194L44.544 14.0784L45.2874 16.3884L43.3333 14.9685L41.3581 16.3882L42.1014 14.0788L40.1473 12.6589H42.5688L43.3335 10.3488ZM57.0972 10.3488L57.8618 12.6589H60.2831L58.3077 14.0784L59.0723 16.3884L57.0969 14.9685L55.1428 16.3882L55.8864 14.0786L53.911 12.6586H56.3749L57.0972 10.3488ZM70.8819 10.3488L71.6253 12.6589H74.0681L72.0927 14.0784L72.836 16.3884L70.8819 14.9685L68.9065 16.3882L69.6501 14.0786L67.696 12.6586H70.1173L70.8819 10.3488ZM8.88172 16.1769L9.64637 18.529H12.0679L10.1135 19.9487L10.8571 22.2586L8.88172 20.8176L6.92762 22.2586L7.67097 19.9275L5.6958 18.508H8.15967L8.88172 16.1769ZM22.6667 16.1769L23.41 18.5073H25.8526L23.8772 19.927L24.6208 22.2371L22.6667 20.7959L20.6913 22.2368L21.4346 19.906L19.4805 18.4863H21.902L22.6667 16.1769ZM36.4304 16.1769L37.195 18.5077H39.5952L37.6411 19.9275L38.3842 22.2375L36.4091 20.7963L34.455 22.2373L35.1983 19.9064L33.2229 18.4867H35.6657L36.4304 16.1769ZM50.2153 16.1769L50.9585 18.5077H53.4013L51.4259 19.9275L52.1905 22.2375L50.2151 20.7963L48.2399 22.2373L49.0046 19.9064L47.0292 18.4867H49.4507L50.2153 16.1769ZM63.979 16.1769L64.7437 18.5077H67.1649L65.2108 19.9272L65.9542 22.2373L63.9788 20.7961L62.0247 22.2371L62.7683 19.9062L60.8142 18.4865H63.2354L63.979 16.1769ZM77.7637 16.1769L78.5071 18.5077H80.9499L78.9745 19.9275L79.7392 22.2375L77.7637 20.7963L75.7884 22.2373L76.553 19.9064L74.5778 18.4867H77.0204L77.7637 16.1769ZM15.7849 22.0253L16.5282 24.3351H18.9708L16.9954 25.7546L17.739 28.0857L15.7849 26.6447L13.8095 28.0645L14.5528 25.7549L12.5987 24.3351H15.0204L15.7849 22.0253ZM29.5485 22.0253L30.3132 24.3351H32.7344L30.759 25.7546L31.5239 28.0857L29.5483 26.6447L27.5731 28.0645L28.3378 25.7549L26.3624 24.3351H28.8049L29.5485 22.0253ZM43.3335 22.0253L44.0766 24.3351H46.5194L44.544 25.7546L45.2874 28.0857L43.3333 26.6447L41.3581 28.0645L42.1014 25.7549L40.1473 24.3351H42.5688L43.3335 22.0253ZM57.0972 22.0253L57.8618 24.3351H60.2831L58.329 25.7546L59.0723 28.0857L57.0969 26.6447L55.1428 28.0645L55.8864 25.7549L53.911 24.3351H56.3749L57.0972 22.0253ZM70.8819 22.0253L71.6253 24.3351H74.0681L72.0927 25.7546L72.836 28.0857L70.8819 26.6447L68.9065 28.0645L69.6501 25.7549L67.696 24.3351H70.1173L70.8819 22.0253ZM8.88172 27.8739L9.64637 30.1838H12.0679L10.1135 31.6033L10.8571 33.9344L8.88172 32.4934L6.92762 33.9131L7.67097 31.6035L5.6958 30.1838H8.15967L8.88172 27.8739ZM22.6667 27.8739L23.41 30.1838H25.8526L23.8772 31.6033L24.6208 33.9133L22.6667 32.4934L20.6913 33.9131L21.4346 31.6035L19.4805 30.1838H21.902L22.6667 27.8739ZM36.4304 27.8739L37.195 30.1838H39.5952L37.6411 31.6033L38.3842 33.9344L36.4091 32.4934L34.455 33.9131L35.1983 31.6035L33.2229 30.1838H35.6657L36.4304 27.8739ZM50.2153 27.8739L50.9585 30.1838H53.4013L51.4259 31.6033L52.1905 33.9344L50.2151 32.4934L48.2399 33.9131L49.0046 31.6035L47.0292 30.1838H49.4507L50.2153 27.8739ZM63.979 27.8739L64.7437 30.1838H67.1649L65.2108 31.6033L65.9542 33.9344L63.9788 32.4934L62.0247 33.9131L62.7683 31.6035L60.8142 30.1838H63.2354L63.979 27.8739ZM77.7637 27.8739L78.5071 30.1838H80.9499L78.9745 31.6033L79.7392 33.9344L77.7637 32.4934L75.7884 33.9131L76.553 31.6035L74.5778 30.1838H77.0204L77.7637 27.8739ZM15.7849 33.7226L16.5282 36.0324H18.9708L16.9954 37.4519L17.739 39.762L15.7849 38.321L13.8095 39.762L14.5528 37.4309L12.5987 36.0112H15.0204L15.7849 33.7226ZM29.5485 33.7226L30.3132 36.0324H32.7344L30.759 37.4519L31.5239 39.762L29.5483 38.321L27.5731 39.762L28.3378 37.4309L26.3624 36.0112H28.8049L29.5485 33.7226ZM43.3335 33.7226L44.0766 36.0324H46.5194L44.544 37.4519L45.2874 39.762L43.3333 38.321L41.3581 39.762L42.1014 37.4309L40.1473 36.0112H42.5688L43.3335 33.7226ZM57.0972 33.7226L57.8618 36.0324H60.2831L58.329 37.4519L59.0723 39.762L57.0969 38.321L55.1428 39.762L55.8864 37.4309L53.911 36.0112H56.3749L57.0972 33.7226ZM70.8819 33.7226L71.6253 36.0324H74.0681L72.0927 37.4519L72.836 39.762L70.8819 38.321L68.9065 39.762L69.6501 37.4309L67.696 36.0112H70.1173L70.8819 33.7226ZM8.88172 39.55L9.64637 41.881H12.0679L10.1135 43.3005L10.8571 45.5894L8.88172 44.1696L6.92762 45.5891L7.67097 43.2795L5.6958 41.8598H8.15967L8.88172 39.55ZM22.6667 39.55L23.41 41.881H25.8526L23.8772 43.3005L24.6421 45.5894L22.6665 44.1696L20.6913 45.5891L21.4559 43.2795L19.4805 41.8598H21.902L22.6667 39.55ZM36.4304 39.55L37.195 41.881H39.5952L37.6411 43.3005L38.3842 45.5894L36.4091 44.1696L34.455 45.5891L35.1983 43.2795L33.2229 41.8598H35.6657L36.4304 39.55ZM50.2153 39.55L50.9585 41.881H53.4013L51.4259 43.3005L52.1905 45.5894L50.2151 44.1696L48.2399 45.5891L49.0046 43.2795L47.0292 41.8598H49.4507L50.2153 39.55ZM63.979 39.55L64.7437 41.881H67.1649L65.2108 43.3005L65.9542 45.5894L63.9788 44.1696L62.0247 45.5891L62.7683 43.2795L60.8142 41.8598H63.2354L63.979 39.55ZM77.7637 39.55L78.5071 41.881H80.9499L78.9745 43.3005L79.7392 45.5894L77.7637 44.1696L75.7884 45.5891L76.553 43.2795L74.5778 41.8598H77.0204L77.7637 39.55ZM15.7849 45.3986L16.5282 47.7084H18.9708L16.9954 49.1282L17.739 51.4593L15.7849 50.0183L13.8095 51.4378L14.5528 49.1282L12.5987 47.7084H15.0204L15.7849 45.3986ZM29.5485 45.3986L30.3132 47.7084H32.7344L30.759 49.1282L31.5239 51.4593L29.5483 50.0183L27.5731 51.4378L28.3378 49.1282L26.3624 47.7084H28.8049L29.5485 45.3986ZM43.3335 45.3986L44.0766 47.7084H46.5194L44.544 49.1282L45.2874 51.4593L43.3333 50.0183L41.3581 51.4378L42.1014 49.1282L40.1473 47.7084H42.5688L43.3335 45.3986ZM57.0972 45.3986L57.8618 47.7084H60.2831L58.329 49.1282L59.0723 51.4593L57.0969 50.0183L55.1428 51.4378L55.8864 49.1282L53.911 47.7084H56.3749L57.0972 45.3986ZM70.8819 45.3986L71.6253 47.7084H74.0681L72.0927 49.1282L72.836 51.4593L70.8819 50.0183L68.9065 51.4378L69.6501 49.1282L67.696 47.7084H70.1173L70.8819 45.3986ZM8.88172 51.2472L9.64637 53.5571H12.0679L10.1135 54.9768L10.8571 57.2866L8.88172 55.8669L6.92762 57.2864L7.67097 54.9556L5.6958 53.5358H8.15967L8.88172 51.2472ZM22.6667 51.2472L23.41 53.5571H25.8526L23.8772 54.9768L24.6421 57.2866L22.6665 55.8669L20.6913 57.2864L21.4559 54.9556L19.4805 53.5358H21.902L22.6667 51.2472ZM36.4304 51.2472L37.195 53.5571H39.5952L37.6835 54.9768L38.4268 57.2866L36.4514 55.8669L34.4973 57.2864L35.2409 54.9556L33.2655 53.5358H35.7081L36.4304 51.2472ZM50.2153 51.2472L50.9585 53.5571H53.4013L51.4259 54.9768L52.1905 57.2866L50.2151 55.8669L48.2399 57.2864L49.0046 54.9556L47.0292 53.5358H49.4507L50.2153 51.2472ZM63.979 51.2472L64.7437 53.5571H67.1649L65.2108 54.9768L65.9542 57.2866L63.9788 55.8669L62.0247 57.2864L62.7683 54.9556L60.8142 53.5358H63.2354L63.979 51.2472ZM77.7637 51.2472L78.5071 53.5571H80.9499L78.9745 54.9768L79.7392 57.2866L77.7637 55.8669L75.7884 57.2864L76.553 54.9556L74.5778 53.5358H77.0204L77.7637 51.2472Z" fill="white"/>
</g>
</g>
<defs>
<filter id="filter0_d_84_99" x="0" y="0" width="157" height="120.497" filterUnits="userSpaceOnUse" color-interpolation-filters="sRGB">
<feFlood flood-opacity="0" result="BackgroundImageFix"/>
<feColorMatrix in="SourceAlpha" type="matrix" values="0 0 0 0 0 0 0 0 0 0 0 0 0 0 0 0 0 0 127 0" result="hardAlpha"/>
<feOffset dx="4" dy="4"/>
<feGaussianBlur stdDeviation="3"/>
<feComposite in2="hardAlpha" operator="out"/>
<feColorMatrix type="matrix" values="0 0 0 0 0 0 0 0 0 0 0 0 0 0 0 0 0 0 0.25 0"/>
<feBlend mode="normal" in2="BackgroundImageFix" result="effect1_dropShadow_84_99"/>
<feBlend mode="normal" in="SourceGraphic" in2="effect1_dropShadow_84_99" result="shape"/>
</filter>
<clipPath id="clip0_84_99">
<rect x="2" y="2" width="145" height="108.497" rx="10" fill="white"/>
</clipPath>
</defs>
</svg>
