<svg width="114" height="114" viewBox="0 0 114 114" fill="none" xmlns="http://www.w3.org/2000/svg">
<path d="M57 0.125C58.0774 0.125 59.1108 0.553012 59.8726 1.31488C60.6345 2.07675 61.0625 3.11006 61.0625 4.1875V12.3125C61.0625 13.3899 60.6345 14.4233 59.8726 15.1851C59.1108 15.947 58.0774 16.375 57 16.375C55.9226 16.375 54.8892 15.947 54.1274 15.1851C53.3655 14.4233 52.9375 13.3899 52.9375 12.3125V4.1875C52.9375 3.11006 53.3655 2.07675 54.1274 1.31488C54.8892 0.553012 55.9226 0.125 57 0.125ZM57 81.375C63.4647 81.375 69.6645 78.8069 74.2357 74.2357C78.8069 69.6645 81.375 63.4647 81.375 57C81.375 50.5353 78.8069 44.3355 74.2357 39.7643C69.6645 35.1931 63.4647 32.625 57 32.625C50.5353 32.625 44.3355 35.1931 39.7643 39.7643C35.1931 44.3355 32.625 50.5353 32.625 57C32.625 63.4647 35.1931 69.6645 39.7643 74.2357C44.3355 78.8069 50.5353 81.375 57 81.375ZM109.812 61.0625C110.89 61.0625 111.923 60.6345 112.685 59.8726C113.447 59.1108 113.875 58.0774 113.875 57C113.875 55.9226 113.447 54.8892 112.685 54.1274C111.923 53.3655 110.89 52.9375 109.812 52.9375H101.688C100.61 52.9375 99.5767 53.3655 98.8149 54.1274C98.053 54.8892 97.625 55.9226 97.625 57C97.625 58.0774 98.053 59.1108 98.8149 59.8726C99.5767 60.6345 100.61 61.0625 101.688 61.0625H109.812ZM57 97.625C58.0774 97.625 59.1108 98.053 59.8726 98.8149C60.6345 99.5767 61.0625 100.61 61.0625 101.688V109.812C61.0625 110.89 60.6345 111.923 59.8726 112.685C59.1108 113.447 58.0774 113.875 57 113.875C55.9226 113.875 54.8892 113.447 54.1274 112.685C53.3655 111.923 52.9375 110.89 52.9375 109.812V101.688C52.9375 100.61 53.3655 99.5767 54.1274 98.8149C54.8892 98.053 55.9226 97.625 57 97.625ZM12.3125 61.0625C13.3899 61.0625 14.4233 60.6345 15.1851 59.8726C15.947 59.1108 16.375 58.0774 16.375 57C16.375 55.9226 15.947 54.8892 15.1851 54.1274C14.4233 53.3655 13.3899 52.9375 12.3125 52.9375H4.1875C3.11006 52.9375 2.07675 53.3655 1.31488 54.1274C0.553012 54.8892 0.125 55.9226 0.125 57C0.125 58.0774 0.553012 59.1108 1.31488 59.8726C2.07675 60.6345 3.11006 61.0625 4.1875 61.0625H12.3125ZM17.5612 17.5612C17.9386 17.1829 18.3869 16.8828 18.8805 16.678C19.374 16.4732 19.9031 16.3677 20.4375 16.3677C20.9719 16.3677 21.501 16.4732 21.9945 16.678C22.4881 16.8828 22.9364 17.1829 23.3138 17.5612L31.4388 25.6862C31.8165 26.064 32.1161 26.5124 32.3205 27.0059C32.5249 27.4994 32.6301 28.0283 32.6301 28.5625C32.6301 29.0967 32.5249 29.6256 32.3205 30.1191C32.1161 30.6126 31.8165 31.061 31.4388 31.4388C31.061 31.8165 30.6126 32.1161 30.1191 32.3205C29.6256 32.5249 29.0967 32.6301 28.5625 32.6301C28.0283 32.6301 27.4994 32.5249 27.0059 32.3205C26.5124 32.1161 26.064 31.8165 25.6862 31.4388L17.5612 23.3138C17.1829 22.9364 16.8828 22.4881 16.678 21.9945C16.4732 21.501 16.3677 20.9719 16.3677 20.4375C16.3677 19.9031 16.4732 19.374 16.678 18.8805C16.8828 18.3869 17.1829 17.9386 17.5612 17.5612ZM23.3138 96.4388C22.9366 96.8165 22.4887 97.1162 21.9957 97.3208C21.5027 97.5254 20.9742 97.6309 20.4404 97.6313C19.9066 97.6317 19.3779 97.5269 18.8846 97.323C18.3913 97.1191 17.943 96.82 17.5653 96.4428C17.1876 96.0656 16.8879 95.6177 16.6833 95.1247C16.4786 94.6317 16.3731 94.1032 16.3727 93.5694C16.3724 93.0356 16.4771 92.507 16.6811 92.0137C16.885 91.5204 17.1841 91.0721 17.5612 90.6944L25.6862 82.5694C26.0634 82.1917 26.5113 81.8919 27.0043 81.6873C27.4973 81.4827 28.0258 81.3772 28.5596 81.3768C29.0934 81.3764 29.6221 81.4812 30.1154 81.6851C30.6087 81.889 31.057 82.1881 31.4347 82.5653C31.8124 82.9425 32.1121 83.3904 32.3167 83.8834C32.5214 84.3764 32.6269 84.9049 32.6273 85.4387C32.6276 85.9725 32.5229 86.5011 32.3189 86.9944C32.115 87.4877 31.8159 87.936 31.4388 88.3138L23.3138 96.4388ZM96.4388 17.5612C96.0614 17.1829 95.6131 16.8828 95.1195 16.678C94.626 16.4732 94.0969 16.3677 93.5625 16.3677C93.0281 16.3677 92.499 16.4732 92.0055 16.678C91.5119 16.8828 91.0636 17.1829 90.6862 17.5612L82.5612 25.6862C81.7984 26.4491 81.3699 27.4837 81.3699 28.5625C81.3699 29.6413 81.7984 30.6759 82.5612 31.4388C83.3241 32.2016 84.3587 32.6301 85.4375 32.6301C86.5163 32.6301 87.5509 32.2016 88.3138 31.4388L96.4388 23.3138C96.8171 22.9364 97.1172 22.4881 97.322 21.9945C97.5268 21.501 97.6323 20.9719 97.6323 20.4375C97.6323 19.9031 97.5268 19.374 97.322 18.8805C97.1172 18.3869 96.8171 17.9386 96.4388 17.5612ZM90.6862 96.4388C91.448 97.2016 92.4816 97.6306 93.5596 97.6313C94.6377 97.6321 95.6719 97.2046 96.4347 96.4428C97.1975 95.6811 97.6265 94.6475 97.6273 93.5694C97.628 92.4914 97.2005 91.4572 96.4388 90.6944L88.3138 82.5694C87.552 81.8065 86.5184 81.3776 85.4404 81.3768C84.3623 81.376 83.3281 81.8036 82.5653 82.5653C81.8025 83.3271 81.3735 84.3607 81.3727 85.4387C81.372 86.5167 81.7995 87.5509 82.5612 88.3138L90.6862 96.4388Z" fill="#FAFF00"/>
</svg>
